<svg xmlns="http://www.w3.org/2000/svg" x="0px" y="0px" width="100" height="100" viewBox="0,0,256,256">
<g fill="none" fill-rule="nonzero" stroke="none" stroke-width="1" stroke-linecap="butt" stroke-linejoin="none" stroke-miterlimit="10" stroke-dasharray="" stroke-dashoffset="0" font-family="none" font-weight="none" font-size="none" text-anchor="none" style="mix-blend-mode: normal"><path transform="scale(10.66667,10.66667)" d="M22,12c0,5.062 -3.765,9.236 -8.646,9.897v-7.247h2.588l0.406,-2.629h-2.995v-1.437c0,-1.092 0.357,-2.061 1.379,-2.061h1.642v-2.294c-0.289,-0.039 -0.898,-0.124 -2.051,-0.124c-2.407,0 -3.818,1.271 -3.818,4.167v1.749h-2.474v2.629h2.474v7.226c-4.812,-0.723 -8.505,-4.863 -8.505,-9.876c0,-5.523 4.477,-10 10,-10c5.523,0 10,4.477 10,10z" id="strokeMainSVG" fill="#000000" stroke="#000000" stroke-linejoin="round"></path><g transform="scale(10.66667,10.66667)" fill="#ffffff" stroke="none" stroke-linejoin="miter"><path d="M12,2c-5.523,0 -10,4.477 -10,10c0,5.013 3.693,9.153 8.505,9.876v-7.226h-2.474v-2.629h2.474v-1.749c0,-2.896 1.411,-4.167 3.818,-4.167c1.153,0 1.762,0.085 2.051,0.124v2.294h-1.642c-1.022,0 -1.379,0.969 -1.379,2.061v1.437h2.995l-0.406,2.629h-2.588v7.247c4.881,-0.661 8.646,-4.835 8.646,-9.897c0,-5.523 -4.477,-10 -10,-10z"></path></g></g>
</svg>